<svg width="34" height="34" viewBox="0 0 34 34" fill="none" xmlns="http://www.w3.org/2000/svg">
<path d="M30.2033 13.5292L27.5258 12.6367L28.7866 10.115C28.9145 9.85105 28.9572 9.55395 28.909 9.26468C28.8608 8.97541 28.724 8.70822 28.5175 8.5L25.5 5.4825C25.2907 5.27295 25.0209 5.13429 24.7287 5.08601C24.4364 5.03773 24.1364 5.08226 23.8708 5.21333L21.3491 6.47417L20.4566 3.79667C20.3624 3.51757 20.1835 3.2748 19.9448 3.10214C19.7061 2.92948 19.4196 2.83552 19.125 2.83333H14.875C14.578 2.83257 14.2883 2.92516 14.0468 3.09803C13.8053 3.27089 13.6242 3.51529 13.5292 3.79667L12.6367 6.47417L10.115 5.21333C9.85104 5.08552 9.55393 5.04277 9.26466 5.09098C8.97539 5.1392 8.70821 5.27599 8.49998 5.4825L5.48248 8.5C5.27294 8.70933 5.13428 8.97908 5.086 9.27131C5.03771 9.56354 5.08224 9.86356 5.21332 10.1292L6.47415 12.6508L3.79665 13.5433C3.51756 13.6376 3.27479 13.8165 3.10213 14.0552C2.92947 14.2939 2.83551 14.5804 2.83332 14.875V19.125C2.83255 19.422 2.92514 19.7117 3.09801 19.9532C3.27088 20.1947 3.51527 20.3758 3.79665 20.4708L6.47415 21.3633L5.21332 23.885C5.08551 24.1489 5.04276 24.446 5.09097 24.7353C5.13918 25.0246 5.27598 25.2918 5.48248 25.5L8.49998 28.5175C8.70932 28.727 8.97907 28.8657 9.2713 28.914C9.56353 28.9623 9.86354 28.9177 10.1292 28.7867L12.6508 27.5258L13.5433 30.2033C13.6384 30.4847 13.8194 30.7291 14.0609 30.902C14.3024 31.0748 14.5922 31.1674 14.8892 31.1667H19.1392C19.4361 31.1674 19.7259 31.0748 19.9674 30.902C20.2089 30.7291 20.3899 30.4847 20.485 30.2033L21.3775 27.5258L23.8992 28.7867C24.1614 28.9113 24.4556 28.9522 24.7419 28.9041C25.0283 28.856 25.2929 28.721 25.5 28.5175L28.5175 25.5C28.727 25.2907 28.8657 25.0209 28.914 24.7287C28.9623 24.4365 28.9177 24.1364 28.7866 23.8708L27.5258 21.3492L30.2033 20.4567C30.4824 20.3624 30.7252 20.1835 30.8978 19.9448C31.0705 19.7061 31.1645 19.4196 31.1667 19.125V14.875C31.1674 14.578 31.0748 14.2883 30.902 14.0468C30.7291 13.8053 30.4847 13.6242 30.2033 13.5292ZM28.3333 18.105L26.6333 18.6717C26.2424 18.7985 25.8837 19.0088 25.5822 19.2881C25.2807 19.5673 25.0436 19.9088 24.8872 20.2889C24.7309 20.669 24.6591 21.0785 24.6768 21.4891C24.6946 21.8997 24.8014 22.3015 24.99 22.6667L25.7975 24.2817L24.2392 25.84L22.6666 24.99C22.3034 24.809 21.9054 24.7082 21.4998 24.6943C21.0941 24.6805 20.6902 24.754 20.3154 24.9098C19.9406 25.0656 19.6037 25.3002 19.3275 25.5975C19.0512 25.8949 18.842 26.2481 18.7142 26.6333L18.1475 28.3333H15.895L15.3283 26.6333C15.2015 26.2424 14.9912 25.8838 14.7119 25.5822C14.4327 25.2807 14.0912 25.0436 13.7111 24.8872C13.331 24.7309 12.9215 24.6591 12.5109 24.6769C12.1003 24.6946 11.6985 24.8014 11.3333 24.99L9.71832 25.7975L8.15998 24.2392L9.00998 22.6667C9.19853 22.3015 9.30539 21.8997 9.32313 21.4891C9.34088 21.0785 9.26909 20.669 9.11275 20.2889C8.95641 19.9088 8.71925 19.5673 8.41774 19.2881C8.11623 19.0088 7.75757 18.7985 7.36665 18.6717L5.66665 18.105V15.895L7.36665 15.3283C7.75757 15.2015 8.11623 14.9912 8.41774 14.7119C8.71925 14.4327 8.95641 14.0912 9.11275 13.7111C9.26909 13.331 9.34088 12.9215 9.32313 12.5109C9.30539 12.1003 9.19853 11.6985 9.00998 11.3333L8.20248 9.76083L9.76082 8.2025L11.3333 9.01C11.6985 9.19855 12.1003 9.3054 12.5109 9.32315C12.9215 9.34089 13.331 9.2691 13.7111 9.11276C14.0912 8.95642 14.4327 8.71927 14.7119 8.41776C14.9912 8.11624 15.2015 7.75759 15.3283 7.36667L15.895 5.66667H18.105L18.6716 7.36667C18.7985 7.75759 19.0088 8.11624 19.288 8.41776C19.5673 8.71927 19.9088 8.95642 20.2889 9.11276C20.669 9.2691 21.0785 9.34089 21.4891 9.32315C21.8997 9.3054 22.3015 9.19855 22.6666 9.01L24.2816 8.2025L25.84 9.76083L24.99 11.3333C24.809 11.6966 24.7082 12.0946 24.6943 12.5002C24.6805 12.9059 24.754 13.3098 24.9098 13.6845C25.0656 14.0593 25.3001 14.3963 25.5975 14.6725C25.8949 14.9488 26.2481 15.158 26.6333 15.2858L28.3333 15.8525V18.105ZM17 11.3333C15.8792 11.3333 14.7836 11.6657 13.8518 12.2883C12.9199 12.911 12.1936 13.796 11.7647 14.8315C11.3358 15.8669 11.2236 17.0063 11.4422 18.1055C11.6608 19.2047 12.2005 20.2144 12.993 21.0069C13.7855 21.7994 14.7952 22.3391 15.8945 22.5578C16.9937 22.7764 18.1331 22.6642 19.1685 22.2353C20.204 21.8064 21.089 21.0801 21.7116 20.1482C22.3343 19.2164 22.6666 18.1208 22.6666 17C22.6666 15.4971 22.0696 14.0558 21.0069 12.9931C19.9442 11.9304 18.5029 11.3333 17 11.3333ZM17 19.8333C16.4396 19.8333 15.8918 19.6672 15.4259 19.3558C14.9599 19.0445 14.5968 18.602 14.3823 18.0843C14.1679 17.5665 14.1118 16.9969 14.2211 16.4472C14.3304 15.8976 14.6003 15.3928 14.9965 14.9965C15.3928 14.6003 15.8976 14.3304 16.4472 14.2211C16.9968 14.1118 17.5665 14.1679 18.0843 14.3823C18.602 14.5968 19.0445 14.9599 19.3558 15.4259C19.6671 15.8918 19.8333 16.4396 19.8333 17C19.8333 17.7514 19.5348 18.4721 19.0035 19.0035C18.4721 19.5348 17.7514 19.8333 17 19.8333Z" fill="#2CA6FF"/>
</svg>
