<svg width="14" height="14" viewBox="0 0 14 14" fill="none" xmlns="http://www.w3.org/2000/svg">
<path d="M11.6667 0.333328H2.33333C1.8029 0.333328 1.29419 0.544042 0.919115 0.919115C0.544042 1.29419 0.333328 1.8029 0.333328 2.33333V11.6667C0.333328 12.1971 0.544042 12.7058 0.919115 13.0809C1.29419 13.4559 1.8029 13.6667 2.33333 13.6667H11.6667C11.7763 13.6651 11.8856 13.654 11.9933 13.6333L12.1933 13.5867H12.24H12.2733L12.52 13.4933L12.6067 13.4467C12.6733 13.4067 12.7467 13.3733 12.8133 13.3267C12.9023 13.2612 12.987 13.1899 13.0667 13.1133L13.1133 13.0533C13.1788 12.987 13.239 12.9157 13.2933 12.84L13.3533 12.7533C13.3999 12.6791 13.44 12.601 13.4733 12.52C13.4916 12.488 13.5072 12.4546 13.52 12.42C13.5533 12.34 13.5733 12.2533 13.6 12.1667V12.0667C13.6378 11.9364 13.6602 11.8021 13.6667 11.6667V2.33333C13.6667 1.8029 13.4559 1.29419 13.0809 0.919115C12.7058 0.544042 12.1971 0.333328 11.6667 0.333328ZM2.33333 12.3333C2.15652 12.3333 1.98695 12.2631 1.86192 12.1381C1.7369 12.013 1.66666 11.8435 1.66666 11.6667V8.79333L3.85999 6.59333C3.92197 6.53084 3.9957 6.48125 4.07694 6.4474C4.15818 6.41355 4.24532 6.39613 4.33333 6.39613C4.42134 6.39613 4.50847 6.41355 4.58971 6.4474C4.67095 6.48125 4.74469 6.53084 4.80666 6.59333L10.54 12.3333H2.33333ZM12.3333 11.6667C12.3327 11.7489 12.3169 11.8302 12.2867 11.9067C12.2714 11.9392 12.2536 11.9704 12.2333 12C12.2155 12.0282 12.1954 12.055 12.1733 12.08L8.60666 8.51333L9.19333 7.92666C9.2553 7.86418 9.32904 7.81458 9.41028 7.78073C9.49152 7.74689 9.57865 7.72946 9.66666 7.72946C9.75467 7.72946 9.84181 7.74689 9.92305 7.78073C10.0043 7.81458 10.078 7.86418 10.14 7.92666L12.3333 10.1267V11.6667ZM12.3333 8.24L11.08 7C10.6985 6.63799 10.1926 6.43618 9.66666 6.43618C9.14073 6.43618 8.63485 6.63799 8.25333 7L7.66666 7.58666L5.74666 5.66666C5.36514 5.30466 4.85926 5.10285 4.33333 5.10285C3.8074 5.10285 3.30151 5.30466 2.92 5.66666L1.66666 6.90666V2.33333C1.66666 2.15652 1.7369 1.98695 1.86192 1.86192C1.98695 1.7369 2.15652 1.66666 2.33333 1.66666H11.6667C11.8435 1.66666 12.013 1.7369 12.1381 1.86192C12.2631 1.98695 12.3333 2.15652 12.3333 2.33333V8.24Z" fill="#2CA6FF"/>
</svg>
