<svg width="19" height="17" viewBox="0 0 19 17" fill="none" xmlns="http://www.w3.org/2000/svg">
<path d="M16.64 2.37502C15.7125 1.44508 14.483 0.877495 13.1735 0.774796C11.8641 0.672098 10.5612 1.04106 9.5 1.81502C8.3867 0.986956 7.00099 0.61147 5.62193 0.76418C4.24286 0.916891 2.97288 1.58645 2.06772 2.63803C1.16257 3.68962 0.689466 5.0451 0.743698 6.43153C0.797929 7.81797 1.37546 9.13236 2.36 10.11L7.79375 15.5525C8.24876 16.0003 8.86158 16.2513 9.5 16.2513C10.1384 16.2513 10.7512 16.0003 11.2062 15.5525L16.64 10.11C17.6616 9.08213 18.2351 7.69176 18.2351 6.24252C18.2351 4.79328 17.6616 3.40291 16.64 2.37502ZM15.4062 8.90252L9.9725 14.3363C9.91066 14.3987 9.83707 14.4483 9.75597 14.4821C9.67487 14.5159 9.58787 14.5333 9.5 14.5333C9.41213 14.5333 9.32512 14.5159 9.24402 14.4821C9.16292 14.4483 9.08933 14.3987 9.0275 14.3363L3.59375 8.87627C2.90754 8.17482 2.52328 7.23256 2.52328 6.25127C2.52328 5.26999 2.90754 4.32772 3.59375 3.62627C4.29301 2.93589 5.2361 2.54877 6.21875 2.54877C7.2014 2.54877 8.14449 2.93589 8.84375 3.62627C8.92509 3.70828 9.02187 3.77338 9.12849 3.8178C9.23512 3.86223 9.34949 3.8851 9.465 3.8851C9.58051 3.8851 9.69487 3.86223 9.8015 3.8178C9.90813 3.77338 10.0049 3.70828 10.0862 3.62627C10.7855 2.93589 11.7286 2.54877 12.7112 2.54877C13.6939 2.54877 14.637 2.93589 15.3362 3.62627C16.0319 4.31853 16.4288 5.25569 16.4418 6.237C16.4549 7.21831 16.0832 8.16572 15.4062 8.87627V8.90252Z" fill="#FF5454"/>
</svg>
