<svg width="17" height="17" viewBox="0 0 17 17" fill="none" xmlns="http://www.w3.org/2000/svg">
<path d="M16.4167 6.65541C16.3667 6.5106 16.2757 6.38341 16.1549 6.28927C16.034 6.19512 15.8885 6.13805 15.7358 6.12499L11.2313 5.46791L9.2125 1.37499C9.14768 1.24114 9.04646 1.12826 8.92045 1.04928C8.79443 0.970297 8.64872 0.928406 8.5 0.928406C8.35128 0.928406 8.20557 0.970297 8.07956 1.04928C7.95354 1.12826 7.85233 1.24114 7.7875 1.37499L5.76875 5.45999L1.26417 6.12499C1.11765 6.14582 0.979901 6.2073 0.866555 6.30245C0.753209 6.39761 0.668804 6.52263 0.622919 6.66333C0.580917 6.80082 0.577148 6.94715 0.612016 7.08662C0.646884 7.2261 0.719073 7.35344 0.820836 7.45499L4.09042 10.6217L3.29875 15.1183C3.27049 15.2667 3.28529 15.4202 3.3414 15.5604C3.39751 15.7007 3.49259 15.822 3.61542 15.91C3.73513 15.9956 3.87633 16.0461 4.02317 16.0559C4.17 16.0657 4.31665 16.0343 4.44667 15.9654L8.5 13.8517L12.5375 15.9733C12.6486 16.036 12.7741 16.0687 12.9017 16.0683C13.0694 16.0689 13.2329 16.0163 13.3688 15.9179C13.4916 15.8299 13.5867 15.7086 13.6428 15.5683C13.6989 15.4281 13.7137 15.2747 13.6854 15.1262L12.8938 10.6296L16.1633 7.46291C16.2776 7.36607 16.3621 7.23879 16.407 7.09585C16.4518 6.95291 16.4552 6.80018 16.4167 6.65541ZM11.5479 9.82208C11.4551 9.91188 11.3856 10.023 11.3456 10.1458C11.3056 10.2687 11.2962 10.3994 11.3183 10.5267L11.8883 13.8437L8.91167 12.2604C8.79713 12.1994 8.66935 12.1675 8.53959 12.1675C8.40982 12.1675 8.28204 12.1994 8.1675 12.2604L5.19084 13.8437L5.76084 10.5267C5.78295 10.3994 5.77359 10.2687 5.73357 10.1458C5.69356 10.023 5.6241 9.91188 5.53125 9.82208L3.15625 7.44708L6.48917 6.96416C6.61742 6.94632 6.73933 6.8973 6.84423 6.82138C6.94913 6.74547 7.0338 6.64499 7.09084 6.52874L8.5 3.51249L9.98834 6.53666C10.0454 6.65291 10.13 6.75339 10.2349 6.8293C10.3398 6.90521 10.4618 6.95424 10.59 6.97208L13.9229 7.45499L11.5479 9.82208Z" fill="#2CA6FF"/>
</svg>
