<svg width="21" height="13" viewBox="0 0 21 13" fill="none" xmlns="http://www.w3.org/2000/svg">
<path d="M20.03 1.88361C19.878 1.79584 19.7055 1.74964 19.53 1.74964C19.3545 1.74964 19.182 1.79584 19.03 1.88361L15.5 3.62361C15.4715 2.84718 15.1429 2.11209 14.5834 1.57305C14.0238 1.03402 13.277 0.73309 12.5 0.733613H3.5C2.70435 0.733613 1.94129 1.04968 1.37868 1.61229C0.816071 2.1749 0.5 2.93796 0.5 3.73361V9.73361C0.5 10.5293 0.816071 11.2923 1.37868 11.8549C1.94129 12.4175 2.70435 12.7336 3.5 12.7336H12.5C13.277 12.7341 14.0238 12.4332 14.5834 11.8942C15.1429 11.3551 15.4715 10.62 15.5 9.84361L19.06 11.6236C19.1963 11.6935 19.3468 11.7311 19.5 11.7336C19.6872 11.7342 19.8709 11.6822 20.03 11.5836C20.1741 11.4935 20.2929 11.3682 20.3751 11.2195C20.4574 11.0708 20.5003 10.9036 20.5 10.7336V2.73361C20.5003 2.56367 20.4574 2.39644 20.3751 2.24772C20.2929 2.09899 20.1741 1.97368 20.03 1.88361ZM13.7929 10.0265C13.7929 10.2917 13.6875 10.5461 13.5 10.7336C13.3125 10.9211 13.0581 11.0265 12.7929 11.0265H3.20711C2.94189 11.0265 2.68754 10.9211 2.5 10.7336C2.31246 10.5461 2.20711 10.2917 2.20711 10.0265V3.44072C2.20711 3.1755 2.31246 2.92115 2.5 2.73361C2.68754 2.54608 2.94189 2.44072 3.20711 2.44072H12.7929C13.0581 2.44072 13.3125 2.54608 13.5 2.73361C13.6875 2.92115 13.7929 3.1755 13.7929 3.44072V10.0265ZM19 9.5L15.5 8L15.5 5.5L19 4V9.5Z" fill="#2CA6FF"/>
</svg>
